<svg viewBox="0 0 395.7 78.38" xmlns="http://www.w3.org/2000/svg">
  <defs>
    <style>.cls-1,.cls-2{fill:#231f20;}.cls-2{stroke:#231f20;stroke-miterlimit:10;}</style>
  </defs>
  <g id="Layer_1" data-name="Layer 1">
    <path class="cls-1" d="M41.78,75.3c14.19,1.08,21,8.51,28.16,16.38,1.77,1.95,3.6,3.94,5.59,5.9a22.81,22.81,0,0,0,.82-6.24A19.85,19.85,0,0,0,73,79.68a16.76,16.76,0,0,0-8.79-6.56q-5.44-1.75-15.76-1.76H11.38V87.44C17.54,80.3,27.15,74.18,41.78,75.3Z" transform="translate(-11.38 -67.39)"></path>
    <path class="cls-1" d="M68.31,118a22.41,22.41,0,0,0-3.56-3.79A22.13,22.13,0,0,0,59,111.58a27.26,27.26,0,0,0,7.81-2.85,20,20,0,0,0,7-7l.07-.14c-2.55-2.41-4.78-4.85-6.89-7.16-6.91-7.58-12.89-14.13-25.5-15.09-12.23-.93-22,3.5-29.08,13.16q-.53.73-1,1.47v49.43H33.73V114.13h2a9.34,9.34,0,0,1,5.45,1.67q1.77,1.28,4,5.55l11.89,22H82.2L71.42,122.49A28,28,0,0,0,68.31,118ZM52.61,97.29A5.88,5.88,0,0,1,49,99.54a33.34,33.34,0,0,1-5.9,1H33.73V85.89H43.5c4.06,0,6.82.62,8.3,1.87A6.62,6.62,0,0,1,54,93.11,6.69,6.69,0,0,1,52.61,97.29Z" transform="translate(-11.38 -67.39)"></path>
    <path class="cls-1" d="M143.18,115.14A31.51,31.51,0,0,0,140,103.23a22.89,22.89,0,0,0-9.87-9.82Q123.64,90,112.45,90q-13.8,0-21.64,7.56a24.74,24.74,0,0,0-5.52,7.91c7.9,5.05,18.74,9,35.64,9.91A144.21,144.21,0,0,0,143.18,115.14Zm-37.51-9.51a9.78,9.78,0,0,1,14.27-1.27c1.68,1.67,2.72,4.43,3.11,8.3H103.36A14,14,0,0,1,105.67,105.63Z" transform="translate(-11.38 -67.39)" style="fill: rgb(10, 161, 221);"></path>
    <path class="cls-1" d="M120.71,119.39c-17.11-.94-28.45-5-36.75-10a31.53,31.53,0,0,0-1,8,28,28,0,0,0,3.91,15,23.93,23.93,0,0,0,9.84,9.28q5.94,2.91,16.31,2.92,11.92,0,18.31-3.41t10.91-11.27L122.56,128a13.09,13.09,0,0,1-3.48,3.29,11.4,11.4,0,0,1-5.6,1.47,9.47,9.47,0,0,1-7.56-3.39q-2.07-2.36-2.61-7.17h40.08V120c0-.29,0-.56,0-.85A147.19,147.19,0,0,1,120.71,119.39Z" transform="translate(-11.38 -67.39)"></path>
    <path class="cls-1" d="M205.66,91.2H185.49l-3.77,11.86a85.57,85.57,0,0,1,20.65-4.13Z" transform="translate(-11.38 -67.39)"></path>
    <path class="cls-1" d="M164.87,91.2h-20.8l9.29,22.32a91,91,0,0,0,16.58-5.75Z" transform="translate(-11.38 -67.39)"></path>
    <path class="cls-1" d="M175,124.25l-3.87-12.63a94,94,0,0,1-16.22,5.62l10.86,26.11h17.73l17.09-40.22a81,81,0,0,0-20.39,4.73Z" transform="translate(-11.38 -67.39)"></path>
    <path class="cls-1" d="M212.14,102.47v40.88h20V103.47a122.67,122.67,0,0,0-12.29-.94C217.1,102.44,214.55,102.43,212.14,102.47Z" transform="translate(-11.38 -67.39)" style="fill: rgb(10, 161, 221);"></path>
    <path class="cls-1" d="M220,98.53c4.57.14,8.58.46,12.17.92V91.2h-20v7.26C214.6,98.43,217.19,98.44,220,98.53Z" transform="translate(-11.38 -67.39)"></path>
    <path class="cls-1" d="M295.18,119.83a14.72,14.72,0,0,0-1-1.6,16.46,16.46,0,0,0-7.44-5.74q-4.86-2-14.83-3.14-6.57-.78-8.54-1.76a3.12,3.12,0,0,1-2-2.89,3.59,3.59,0,0,1,1.55-2.92,8.1,8.1,0,0,1,4.94-1.2,10,10,0,0,1,5.69,1.57,6.43,6.43,0,0,1,2.46,3.68L295,104a23.19,23.19,0,0,0-4.93-8.1,18,18,0,0,0-7.42-4.42Q278.24,90,268.91,90q-8.84,0-14.1,1.84a17.79,17.79,0,0,0-8.25,5.57,13.35,13.35,0,0,0-2.36,4.47,77.8,77.8,0,0,1,16.65,7.34C268.86,113.63,277.05,118.11,295.18,119.83Z" transform="translate(-11.38 -67.39)"></path>
    <path class="cls-1" d="M243.58,105.87c0,.15,0,.29,0,.44a13.53,13.53,0,0,0,2.77,8.38,15.24,15.24,0,0,0,6.83,5.23q4.05,1.55,14.46,3.36c4.65.82,7.51,1.5,8.6,2.06a3.64,3.64,0,0,1,2.25,3.33,3.84,3.84,0,0,1-1.71,3.19,10,10,0,0,1-6.24,1.72,10.22,10.22,0,0,1-5.89-1.52A9.82,9.82,0,0,1,261.2,127l-19.84,1.86a18.29,18.29,0,0,0,7.78,11.59q6.06,4.08,20.36,4.08,10.11,0,16-2.53a18.49,18.49,0,0,0,8.6-6.79,16.17,16.17,0,0,0,2.72-8.78,14.13,14.13,0,0,0-.21-2.45c-20.16-1.65-29-6.49-37.66-11.23A75.08,75.08,0,0,0,243.58,105.87Z" transform="translate(-11.38 -67.39)"></path>
    <path class="cls-1" d="M330.44,120v-14.2h11V91.2h-11V71.36h-20V91.2H303v14.63h7.37v14.73C316.27,120.61,322.9,120.45,330.44,120Z" transform="translate(-11.38 -67.39)"></path>
    <path class="cls-1" d="M310.41,124.56q0,8.43,1.69,12.24a11.69,11.69,0,0,0,5.23,5.82q3.54,1.9,11,1.91a65.08,65.08,0,0,0,13.85-1.62l-1.47-13.8a22.07,22.07,0,0,1-6.19,1.28,3.66,3.66,0,0,1-3.44-1.67c-.43-.72-.64-2.19-.64-4.41V124c-6.65.37-12.63.54-18,.54Z" transform="translate(-11.38 -67.39)"></path>
    <circle class="cls-1" cx="210.75" cy="9.91" r="9.91"></circle>
  </g>
  <g id="Layer_2" data-name="Layer 2" transform="matrix(1, 0, 0, 1, -2.168433, 0)">
    <path class="cls-2" d="M405.58,118.4s-1.37-4.74-3.81-3.86-2.93-1.47-5.47-1.86-2.05,1.17-.88,2.44,4.2-.09,3,2.64-8.7-.1-6.55,1.71-1.56,3.56-1.56,3.56,1.27,2.64-2,4.69-3.34,4.69-3.34,4.69c.1,9.18-4.49,10.55-6.74,10.25s-3.42-4.1-2.83-8.39-2.25-4.3-4.5-5.57-1.66-2.54-1.66-3.42,0-1.47-1.36-1.37-2.84-1.56-2.84-1.56c-2.73-3.91-.09-5.37,1.48-9.38s10.83.49,10.83.49,5.66.2,6.84-1.36-1.27-2.35-1.27-2.35c-5.37,0-4.69-1-4.69-1s0-3.61-3.32-2-3.42,0-3.42,0c0-2.64,1.56-2.15,3-3.42s-.2-2.05,0-4.49,4.32,1.86,4.32,1.86,4.08-2,1-2.35-2.54-2.24-2.54-2.24,2.35-3.72,5.28-2.05,3,1.13,3.32,0a6.92,6.92,0,0,1,3.39-3.66A37.67,37.67,0,0,0,378.4,89a36.62,36.62,0,0,0-9.69,1.21c-.69,2.2-2.32,5.59-5.81,5.46,0,0,.9,4.73-8.84,5.56q-3.74,6.5-3.74,15.93c0,.72,0,1.43.05,2.12,1.15-.1,3.18.19,4.13,3.25,1.36,4.39,3.12,4.49,3.12,4.49s1.47.29,0,3.71a25.18,25.18,0,0,0-1.55,5.26,21.71,21.71,0,0,0,7.76,6.32q6,2.94,15.25,2.94c6.17,0,11.06-1.12,15.12-3.4a22.85,22.85,0,0,0,9.26-9.5,30.75,30.75,0,0,0,3.12-12.46C406,119.17,405.58,118.4,405.58,118.4Z" transform="translate(-11.38 -67.39)" style="fill: rgb(10, 161, 221); stroke-width: 2px; stroke: none;"></path>
  </g>
</svg>