<svg version="1.1" width="1080" height="1080" viewBox="251.564 223.47 621.566 624.121" xmlns="http://www.w3.org/2000/svg">
  <desc>Created with Fabric.js 4.2.0</desc>
  <defs></defs>
  <g transform="matrix(0 0 0 0 0 0)" id="2de2eb2a-df56-485d-9524-cd7e4017ec04"></g>
  <g transform="matrix(2.59 0 0 2.61 540 540)" style="" id="8edebd33-862a-4b3f-8b36-02e0d3fbc1e3">
    <text font-family="Lato" font-size="144" font-style="normal" font-weight="400" style="stroke: none; stroke-width: 1; stroke-dasharray: none; stroke-linecap: butt; stroke-dashoffset: 0; stroke-linejoin: miter; stroke-miterlimit: 4; fill: rgb(0,0,0); fill-rule: nonzero; opacity: 1; white-space: pre;"><tspan x="-28.66" y="45.24">?</tspan></text>
  </g>
  <g transform="matrix(5.62 0 0 5.62 539.9 539.9)">
    <path style="stroke: rgb(0,0,0); stroke-width: 6; stroke-dasharray: none; stroke-linecap: butt; stroke-dashoffset: 0; stroke-linejoin: miter; stroke-miterlimit: 4; fill: rgb(0,0,0); fill-rule: nonzero; opacity: 1;" vector-effect="non-scaling-stroke" d="M 50 92.875 C 26.358 92.875 7.125 73.642 7.125 50 C 7.125 26.358000000000004 26.358 7.125 50 7.125 C 73.642 7.125 92.875 26.358 92.875 50 C 92.875 73.642 73.642 92.875 50 92.875 z M 50 9.125 C 27.461 9.125 9.125 27.461 9.125 50 C 9.125 72.538 27.461 90.875 50 90.875 C 72.538 90.875 90.875 72.538 90.875 50 C 90.875 27.461 72.538 9.125 50 9.125 z" stroke-linecap="round" transform=" translate(-50, -50)"></path>
  </g>
</svg>