<svg version="1.1" width="1080" height="1080" viewBox="0 0 533.456 619.013" xmlns="http://www.w3.org/2000/svg">
  <desc>Created with Fabric.js 4.2.0</desc>
  <defs></defs>
  <g transform="matrix(Infinity NaN NaN Infinity 0 0)" id="2de2eb2a-df56-485d-9524-cd7e4017ec04"></g>
  <g transform="matrix(6.75, 0, 0, 6.75, 252.681046, 290.990326)">
    <g style="" vector-effect="non-scaling-stroke">
      <g transform="matrix(1 0 0 1 0.86 5.92)">
        <path style="stroke: none; stroke-width: 1; stroke-dasharray: none; stroke-linecap: butt; stroke-dashoffset: 0; stroke-linejoin: miter; stroke-miterlimit: 4; fill: rgb(0,0,0); fill-rule: nonzero; opacity: 1;" vector-effect="non-scaling-stroke" transform=" translate(-50.86, -55.92)" d="M 50.861 87.432 L 46.214999999999996 87.432 L 42.589999999999996 82.34400000000001 C 42.589999999999996 73.18400000000001 41.827 64.72600000000001 36.92699999999999 59.95500000000001 C 32.855999999999995 56.201000000000015 30.313999999999993 50.85900000000001 30.313999999999993 44.942000000000014 C 30.313999999999993 33.622000000000014 39.535 24.399000000000015 50.85999999999999 24.399000000000015 C 62.17999999999999 24.399000000000015 71.401 33.622000000000014 71.401 44.942000000000014 C 71.401 50.859000000000016 68.859 56.201000000000015 64.788 59.95500000000001 C 59.891999999999996 64.72600000000001 59.126 73.18400000000001 59.126 82.34400000000001 L 55.501 87.432 L 50.861 87.432 z M 44.625 74.33 L 57.093 74.33 C 57.794000000000004 67.77799999999999 59.574000000000005 60.908 62.81700000000001 57.792 C 66.31500000000001 54.547000000000004 68.48 49.969 68.48 44.879000000000005 C 68.48 35.148 60.591 27.261000000000006 50.86200000000001 27.261000000000006 C 41.12800000000001 27.261000000000006 33.239000000000004 35.148 33.239000000000004 44.879000000000005 C 33.239000000000004 49.96900000000001 35.404 54.547000000000004 38.84 57.792 C 42.083 60.908 43.928 67.778 44.625 74.33 z" stroke-linecap="round"></path>
      </g>
      <g transform="matrix(1 0 0 1 27.51 -6.08)">
        <path style="stroke: none; stroke-width: 1; stroke-dasharray: none; stroke-linecap: butt; stroke-dashoffset: 0; stroke-linejoin: miter; stroke-miterlimit: 4; fill: rgb(0,0,0); fill-rule: nonzero; opacity: 1;" vector-effect="non-scaling-stroke" transform=" translate(-77.51, -43.93)" d="M 80.181 45.262 L 74.838 45.262 C 74.076 45.262 73.502 44.688 73.502 43.926 C 73.502 43.227000000000004 74.076 42.589 74.838 42.589 L 80.181 42.589 C 80.944 42.589 81.518 43.227 81.518 43.926 C 81.518 44.688 80.943 45.262 80.181 45.262 z" stroke-linecap="round"></path>
      </g>
      <g transform="matrix(1 0 0 1 -27.51 -6.08)">
        <path style="stroke: none; stroke-width: 1; stroke-dasharray: none; stroke-linecap: butt; stroke-dashoffset: 0; stroke-linejoin: miter; stroke-miterlimit: 4; fill: rgb(0,0,0); fill-rule: nonzero; opacity: 1;" vector-effect="non-scaling-stroke" transform=" translate(-22.49, -43.93)" d="M 25.162 45.262 L 19.82 45.262 C 19.057 45.262 18.483 44.688 18.483 43.926 C 18.483 43.227000000000004 19.057000000000002 42.589 19.82 42.589 L 25.162 42.589 C 25.863 42.589 26.499 43.227 26.499 43.926 C 26.499 44.688 25.863 45.262 25.162 45.262 z" stroke-linecap="round"></path>
      </g>
      <g transform="matrix(1 0 0 1 19.44 -25.51)">
        <path style="stroke: none; stroke-width: 1; stroke-dasharray: none; stroke-linecap: butt; stroke-dashoffset: 0; stroke-linejoin: miter; stroke-miterlimit: 4; fill: rgb(0,0,0); fill-rule: nonzero; opacity: 1;" vector-effect="non-scaling-stroke" transform=" translate(-69.44, -24.49)" d="M 72.297 23.571 L 68.47999999999999 27.325000000000003 C 67.97099999999999 27.833000000000002 67.14299999999999 27.833000000000002 66.63399999999999 27.325000000000003 C 66.05999999999999 26.816000000000003 66.05999999999999 25.988000000000003 66.63399999999999 25.416000000000004 L 70.38599999999998 21.665000000000003 C 70.89399999999998 21.154000000000003 71.78799999999998 21.154000000000003 72.29699999999998 21.665000000000003 C 72.805 22.173 72.805 23.063 72.297 23.571 z" stroke-linecap="round"></path>
      </g>
      <g transform="matrix(1 0 0 1 -19.46 13.42)">
        <path style="stroke: none; stroke-width: 1; stroke-dasharray: none; stroke-linecap: butt; stroke-dashoffset: 0; stroke-linejoin: miter; stroke-miterlimit: 4; fill: rgb(0,0,0); fill-rule: nonzero; opacity: 1;" vector-effect="non-scaling-stroke" transform=" translate(-30.54, -63.42)" d="M 33.366 62.436 L 29.615 66.251 C 29.046 66.76100000000001 28.217 66.76100000000001 27.709 66.251 C 27.201 65.742 27.201 64.85300000000001 27.709 64.34400000000001 L 31.46 60.59100000000001 C 31.968 60.08200000000001 32.858000000000004 60.08200000000001 33.366 60.59100000000001 C 33.879 61.099 33.879 61.927 33.366 62.436 z" stroke-linecap="round"></path>
      </g>
      <g transform="matrix(1 0 0 1 19.44 13.42)">
        <path style="stroke: none; stroke-width: 1; stroke-dasharray: none; stroke-linecap: butt; stroke-dashoffset: 0; stroke-linejoin: miter; stroke-miterlimit: 4; fill: rgb(0,0,0); fill-rule: nonzero; opacity: 1;" vector-effect="non-scaling-stroke" transform=" translate(-69.44, -63.42)" d="M 70.386 66.251 L 66.634 62.43600000000001 C 66.06 61.92700000000001 66.06 61.099000000000004 66.634 60.59100000000001 C 67.143 60.08200000000001 67.971 60.08200000000001 68.48 60.59100000000001 L 72.297 64.34400000000001 C 72.80499999999999 64.85300000000001 72.80499999999999 65.742 72.297 66.251 C 71.788 66.761 70.894 66.761 70.386 66.251 z" stroke-linecap="round"></path>
      </g>
      <g transform="matrix(1 0 0 1 -19.46 -25.51)">
        <path style="stroke: none; stroke-width: 1; stroke-dasharray: none; stroke-linecap: butt; stroke-dashoffset: 0; stroke-linejoin: miter; stroke-miterlimit: 4; fill: rgb(0,0,0); fill-rule: nonzero; opacity: 1;" vector-effect="non-scaling-stroke" transform=" translate(-30.54, -24.49)" d="M 31.459 27.325 L 27.708 23.570999999999998 C 27.2 23.063 27.2 22.173 27.708 21.665 C 28.215999999999998 21.154 29.044999999999998 21.154 29.613999999999997 21.665 L 33.364999999999995 25.416 C 33.87799999999999 25.988 33.87799999999999 26.816 33.364999999999995 27.325 C 32.857 27.833 31.968 27.833 31.459 27.325 z" stroke-linecap="round"></path>
      </g>
      <g transform="matrix(1 0 0 1 1.3 -33.39)">
        <path style="stroke: none; stroke-width: 1; stroke-dasharray: none; stroke-linecap: butt; stroke-dashoffset: 0; stroke-linejoin: miter; stroke-miterlimit: 4; fill: rgb(0,0,0); fill-rule: nonzero; opacity: 1;" vector-effect="non-scaling-stroke" transform=" translate(-51.3, -16.61)" d="M 49.967 19.311 L 49.967 13.902999999999999 C 49.967 13.203999999999999 50.541 12.568999999999999 51.303 12.568999999999999 C 52.004 12.568999999999999 52.64 13.203999999999999 52.64 13.902999999999999 L 52.64 19.311 C 52.64 20.01 52.004 20.645 51.303 20.645 C 50.541 20.646 49.967 20.01 49.967 19.311 z" stroke-linecap="round"></path>
      </g>
    </g>
  </g>
</svg>